<?xml version="1.0" standalone="no"?><!DOCTYPE svg PUBLIC "-//W3C//DTD SVG 1.1//EN" "http://www.w3.org/Graphics/SVG/1.1/DTD/svg11.dtd"><svg t="1725551820534" class="icon" viewBox="0 0 1024 1024" version="1.1" xmlns="http://www.w3.org/2000/svg" p-id="5698" xmlns:xlink="http://www.w3.org/1999/xlink" width="256" height="256"><path d="M199.111111 0h625.777778c109.795556 0 199.111111 89.315556 199.111111 199.111111v625.777778c0 109.795556-89.315556 199.111111-199.111111 199.111111H199.111111c-109.795556 0-199.111111-89.315556-199.111111-199.111111V199.111111C0 89.315556 89.315556 0 199.111111 0z" fill="#306CFF" p-id="5699"></path><path d="M436.337778 561.493333h48.355555v256h-85.333333c-9.102222 0-18.204444 0.568889-27.306667-1.137777-18.773333-3.982222-35.84-15.928889-47.217777-31.288889-9.102222-11.377778-14.222222-25.031111-17.066667-39.253334-2.844444-14.791111-2.275556-30.151111 0-44.373333 4.551111-15.928889 13.084444-31.288889 25.031111-43.235556 10.24-10.24 22.186667-17.635556 35.84-21.617777 5.688889-1.706667 10.808889-2.844444 16.497778-2.844445h50.631111c0.568889-24.462222 0.568889-48.355556 0.568889-72.248889z m-53.475556 116.053334c-9.671111 4.551111-18.773333 11.946667-23.324444 21.617777-3.413333 8.533333-4.551111 18.204444-5.12 27.306667 0 11.377778 3.413333 22.755556 9.671111 31.857778 7.395556 10.808889 20.48 18.204444 34.133333 17.635555h38.684445v-101.831111h-43.235556c-3.982222 0-7.395556 1.706667-10.808889 3.413334z m128-40.96h48.355556v119.466666c0 5.12 1.706667 10.24 5.12 14.222223 3.982222 3.982222 9.671111 6.257778 14.791111 6.257777h51.2V637.155556h48.355555v180.906666H561.493333c-12.515556-1.137778-25.031111-5.688889-34.133333-14.222222-10.808889-9.671111-16.497778-23.893333-15.928889-38.115556-0.568889-43.235556-0.568889-85.902222-0.568889-129.137777z" fill="#306CFF" p-id="5700"></path><path d="M415.288889 138.24c14.791111-2.844444 30.151111 1.137778 42.666667 9.671111 19.342222 13.084444 32.426667 33.564444 39.822222 55.751111 11.377778 34.133333 10.808889 72.248889-2.275556 106.382222-6.257778 16.497778-16.497778 31.857778-29.582222 43.804445C455.111111 362.951111 440.888889 369.777778 426.666667 369.777778c-14.222222 0.568889-28.444444-5.12-39.822223-13.653334-18.204444-14.222222-30.151111-34.702222-36.408888-56.888888-9.671111-32.426667-8.533333-68.266667 2.844444-100.124445 7.395556-18.773333 18.773333-36.977778 35.271111-48.924444 7.395556-6.257778 16.497778-10.24 26.737778-11.946667z m216.746667 17.066667c10.24-2.275556 21.048889 0.568889 30.72 5.12 13.084444 6.257778 24.462222 16.497778 33.564444 28.444444 12.515556 16.497778 21.617778 35.84 24.462222 56.888889 2.275556 14.222222 0 29.013333-3.982222 42.666667-4.551111 16.497778-11.946667 32.995556-22.186667 47.217777-8.533333 12.515556-19.342222 23.893333-32.426666 31.288889-11.946667 7.395556-26.168889 10.808889-40.391111 9.671111-17.066667-1.137778-34.702222-6.826667-47.217778-19.342222-12.515556-11.946667-19.911111-29.013333-23.324445-45.511111-3.413333-18.204444-3.413333-36.408889-1.137777-55.182222 2.275556-15.928889 9.102222-31.288889 17.066666-44.942222 8.533333-14.222222 19.342222-27.875556 32.426667-38.684445 9.102222-8.533333 19.911111-15.36 32.426667-17.635555zM242.346667 310.044444c15.928889-2.844444 32.426667 0.568889 46.08 7.964445 20.48 11.377778 36.408889 30.151111 46.648889 51.2 3.982222 8.533333 7.395556 18.204444 7.964444 27.875555 2.844444 24.462222 2.275556 49.493333-5.12 72.817778-4.551111 15.928889-13.084444 31.288889-25.6 42.097778-15.36 13.653333-36.408889 20.48-56.888889 21.048889-17.066667 0-34.133333-6.257778-47.217778-17.635556-17.066667-14.791111-27.875556-35.84-32.995555-58.026666-3.413333-14.791111-5.12-30.151111-2.844445-45.511111 3.413333-25.031111 10.808889-50.631111 25.6-71.68 10.24-14.791111 26.168889-26.737778 44.373334-30.151112z m506.311111 56.32c18.773333-2.275556 38.684444 0 55.182222 9.671112 15.36 8.533333 27.306667 22.186667 35.84 37.546666 6.826667 13.084444 11.377778 27.306667 12.515556 42.097778 0.568889 21.048889 1.137778 42.097778-3.413334 62.577778-2.844444 14.222222-8.533333 28.444444-17.635555 39.822222-8.533333 10.808889-21.048889 18.773333-34.702223 22.755556-13.653333 3.982222-27.875556 3.982222-41.528888 2.844444-16.497778-1.706667-33.564444-6.257778-46.648889-17.066667-11.377778-9.102222-19.342222-22.186667-23.893334-36.408889-5.688889-18.773333-6.257778-38.684444-6.257777-58.595555 0.568889-20.48 3.413333-41.528889 11.377777-60.302222 6.257778-14.222222 15.928889-27.306667 29.013334-35.271111 9.671111-5.688889 19.911111-8.533333 30.151111-9.671112zM496.64 441.457778c18.773333-2.275556 38.684444 1.137778 55.751111 9.102222 26.737778 12.515556 47.217778 35.271111 63.146667 60.302222 19.911111 28.444444 42.666667 54.613333 66.56 79.075556 22.755556 23.324444 47.217778 45.511111 72.248889 66.56 3.982222 3.413333 8.533333 6.826667 12.515555 10.808889 18.773333 19.342222 30.72 46.08 32.995556 73.386666 2.844444 29.013333-3.982222 58.026667-15.928889 84.195556-8.533333 19.342222-23.893333 35.271111-42.097778 45.511111-25.6 14.222222-55.751111 17.066667-84.195555 16.497778-27.875556-1.137778-55.751111-6.257778-82.488889-14.791111-32.426667-9.102222-66.56-11.377778-99.555556-7.395556-15.36 1.706667-30.72 6.257778-46.08 8.533333-34.702222 5.688889-69.973333 7.395556-105.244444 5.12-29.013333-1.137778-57.457778-15.928889-75.662223-38.684444-11.377778-14.222222-19.342222-30.151111-24.462222-47.786667-5.12-15.928889-7.964444-32.426667-6.826666-49.493333 0.568889-19.911111 6.826667-39.253333 15.928888-56.32 14.222222-26.168889 35.271111-47.217778 58.595556-64.853333 6.826667-5.12 14.222222-9.671111 19.342222-15.928889 10.808889-10.24 22.186667-19.911111 32.995556-30.151111 20.48-19.342222 38.684444-40.391111 54.044444-63.715556 4.551111-6.826667 7.964444-13.653333 13.084445-19.911111 21.048889-26.737778 52.337778-46.08 85.333333-50.062222zM436.337778 561.493333v71.68h-50.631111c-5.688889 0-11.377778 1.137778-16.497778 2.844445-13.653333 3.982222-25.6 11.946667-35.84 21.617778-11.946667 11.946667-20.48 27.306667-25.031111 43.235555-2.275556 14.791111-2.844444 30.151111 0 44.373333s7.964444 27.875556 17.066666 39.253334c11.946667 15.36 28.444444 27.306667 47.217778 31.288889 9.102222 2.275556 18.204444 1.137778 27.306667 1.137777h85.333333v-256c-16.497778 0.568889-32.426667 0.568889-48.924444 0.568889z m74.524444 75.093334v128.568889c-0.568889 14.222222 5.688889 28.444444 15.928889 38.115555 9.102222 8.533333 21.617778 13.084444 34.133333 14.222222h117.191112v-180.906666h-48.355556v139.377777h-51.2c-5.688889 0-11.377778-1.706667-14.791111-6.257777-3.413333-3.982222-5.12-9.102222-5.12-14.222223v-119.466666c-15.36 0.568889-31.288889 0.568889-47.786667 0.568889z" fill="#FFFFFF" p-id="5701"></path><path d="M382.862222 677.546667c3.413333-1.137778 6.826667-3.413333 10.24-2.844445h43.235556v101.831111h-38.684445c-13.084444 0.568889-26.168889-6.257778-34.133333-17.635555-6.257778-9.102222-9.671111-21.048889-9.671111-31.857778 0-9.102222 1.706667-18.773333 5.12-27.306667 5.12-10.808889 14.222222-17.635556 23.893333-22.186666z" fill="#FFFFFF" p-id="5702"></path></svg>