<svg
  t="1755153087026"
  class="icon"
  viewBox="0 0 1024 1024"
  version="1.1"
  xmlns="http://www.w3.org/2000/svg"
  p-id="4135"
  width="200"
  height="200"
>
  <path
    d="M960 960h-896C25.6 960 0 934.4 0 896V192h960c38.4 0 64 25.6 64 64v640c0 38.4-25.6 64-64 64zM640 192c0-70.656-76.8-128-179.2-128H89.6C38.4 64 0 89.6 0 128v64"
    fill="#0876A0"
    p-id="4136"
  ></path>
  <path
    d="M864.256 640H159.744c-19.456 0-31.744-12.8-31.744-31.744V287.744c0-19.456 12.8-31.744 31.744-31.744h704c19.456 0 31.744 12.8 31.744 31.744v320c0.512 19.456-12.288 32.256-31.232 32.256z"
    fill="#F9F9F9"
    p-id="4137"
  ></path>
  <path
    d="M960 960h-896C25.6 960 0 934.4 0 896V384c0-38.4 25.6-64 64-64h896c38.4 0 64 25.6 64 64v512c0 38.4-25.6 64-64 64z"
    fill="#1DB0E7"
    p-id="4138"
  ></path>
</svg>