<?xml version="1.0" standalone="no"?>
<!DOCTYPE
  svg
  PUBLIC "-//W3C//DTD SVG 1.1//EN" "http://www.w3.org/Graphics/SVG/1.1/DTD/svg11.dtd"
><svg
  t="1748975679232"
  class="icon"
  viewBox="0 0 1024 1024"
  version="1.1"
  xmlns="http://www.w3.org/2000/svg"
  p-id="1165"
  xmlns:xlink="http://www.w3.org/1999/xlink"
  width="200"
  height="200"
>
  <path
    d="M984.34844445 320.87608889H512.02275555c-105.56302222-0.1024-191.22631111 85.39022222-191.3287111 190.95324444-0.03413333 32.79075555 8.37404445 65.03537778 24.40533333 93.63911112L108.93084445 200.24888889C280.94008889-22.38008889 600.86044445-63.40835555 823.48942222 108.60088889a509.45592889 509.45592889 0 0 1 160.85902223 212.2752z"
    fill="#F44336"
    p-id="1166"
  ></path>
  <path
    d="M1021.72444445 512.02275555C1021.48551111 793.41795555 793.42933333 1021.48551111 512.02275555 1021.72444445c-21.31057778 0.07964445-42.5984-1.34257778-63.71555555-4.24391112l229.36462222-409.88444444c52.56533333-91.51146667 21.23093333-208.31573333-70.08711111-261.2224a189.38993778 189.38993778 0 0 0-95.14097778-25.48622222h471.90471112A502.44494222 502.44494222 0 0 1 1021.72444445 512.02275555z"
    fill="#FFC107"
    p-id="1167"
  ></path>
  <path
    d="M677.67182222 607.58471111L448.3072 1017.46915555h-0.42097778C168.76657778 982.20942222-28.92231111 727.3472 6.3488 448.22755555A509.39790222 509.39790222 0 0 1 108.93084445 200.24888889L345.088 605.46844445l1.27431111 2.12764444c52.66773333 91.48871111 169.51751111 122.95964445 261.00622222 70.29191111a191.07498667 191.07498667 0 0 0 70.30328889-70.30328889z"
    fill="#4CAF50"
    p-id="1168"
  ></path>
  <path
    d="M657.61 596.01c-46.29 80.41-148.99 108.07-229.4 61.78-25.68-14.79-47-36.1-61.78-61.78l-1.12-1.87c-45.36-80.94-16.52-183.32 64.42-228.68a168.084 168.084 0 0 1 82.3-21.45h0.37c29.36-0.04 58.21 7.69 83.62 22.4 80.25 46.52 107.79 149.17 61.59 229.6z"
    fill="#F44336"
    p-id="1169"
  ></path>
  <path
    d="M677.67182222 607.58471111c-52.66773333 91.48871111-169.51751111 122.95964445-261.00622222 70.29191111-29.21813333-16.82773333-53.47555555-41.07377778-70.29191111-70.29191111l-1.27431111-2.12764444c-51.6096-92.09173333-18.79608889-208.57742222 73.29564444-260.18702222a191.24224 191.24224 0 0 1 93.63911111-24.40533334h0.42097778c33.40515555-0.04551111 66.23004445 8.74951111 95.14097778 25.48622222 91.30666667 52.92942222 122.64106667 169.72231111 70.07573333 261.23377778z"
    fill="#2196F3"
    p-id="1170"
  ></path>
  <path
    d="M511.29457778 724.40035555c-37.03466667 0-73.40942222-9.76213333-105.472-28.28515555a213.12512 213.12512 0 0 1-77.85813333-77.90364445c-58.64106667-101.5808-23.84782222-231.46951111 77.73297777-290.11057777a212.40490667 212.40490667 0 0 1 106.31395556-28.45582223c117.29351111-0.09102222 212.44586667 94.9248 212.53688889 212.20693334 0.03413333 37.33048889-9.78488889 74.02382222-28.45582222 106.34808889-38.26346667 65.80906667-108.66915555 106.26844445-184.79786667 106.20017777z m1.10364444-382.28195555c-60.95075555-0.31857778-117.38453333 32.11946667-147.77457777 84.94648889-46.92195555 81.35111111-19.00088889 185.33262222 62.35022222 232.25457778s185.344 19.00088889 232.25457778-62.35022222c46.92195555-81.26008889 19.06915555-185.17333333-62.19093334-232.08391112a170.03633778 170.03633778 0 0 0-84.60515556-22.76693333h-0.03413333z"
    fill="#FAFAFA"
    p-id="1171"
  ></path>
</svg>