<?xml version="1.0" standalone="no"?><!DOCTYPE svg PUBLIC "-//W3C//DTD SVG 1.1//EN" "http://www.w3.org/Graphics/SVG/1.1/DTD/svg11.dtd"><svg t="1717870907499" class="icon" viewBox="0 0 1024 1024" version="1.1" xmlns="http://www.w3.org/2000/svg" p-id="1257" xmlns:xlink="http://www.w3.org/1999/xlink" width="256" height="256"><path d="M204.8 0h614.4C931.84 0 1024 92.16 1024 204.8v614.4c0 112.64-92.16 204.8-204.8 204.8H204.8C92.16 1024 0 931.84 0 819.2V204.8C0 92.16 92.16 0 204.8 0z" fill="#FC6420" p-id="1258"></path><path d="M229.376 405.504l-36.864 57.344 69.632 43.008s45.056 24.576 24.576 67.584c-20.48 43.008-120.832 135.168-120.832 135.168L256 765.952c61.44-135.168 57.344-118.784 73.728-167.936 16.384-49.152 20.48-88.064-8.192-114.688-36.864-36.864-40.96-38.912-92.16-77.824z m47.104-22.528c32.768 0 59.392-24.576 59.392-53.248 0-28.672-26.624-53.248-59.392-53.248s-59.392 24.576-59.392 53.248c2.048 28.672 28.672 53.248 59.392 53.248z m532.48 6.144s-20.48-153.6-350.208-59.392c14.336-24.576 20.48-40.96 20.48-40.96l-81.92-24.576s-32.768 110.592-92.16 161.792l57.344 32.768c16.384-16.384 30.72-34.816 43.008-51.2 12.288-6.144 26.624-12.288 38.912-16.384-16.384 28.672-38.912 69.632-65.536 96.256l34.816 30.72s24.576-22.528 49.152-51.2h28.672v51.2H376.832v40.96H491.52v98.304h-4.096c-12.288 0-32.768-2.048-40.96-14.336-10.24-14.336-2.048-43.008-2.048-59.392h-79.872l-2.048 2.048s-28.672 133.12 83.968 129.024c106.496 2.048 165.888-30.72 194.56-53.248l12.288 43.008 65.536-28.672-45.056-110.592-53.248 16.384 10.24 36.864c-14.336 10.24-28.672 18.432-45.056 24.576v-86.016h112.64v-40.96h-112.64V471.04h112.64v-40.96H497.664c14.336-18.432 26.624-34.816 28.672-45.056l-34.816-10.24c149.504-55.296 233.472-45.056 233.472 45.056v235.52s8.192 79.872-81.92 75.776l-49.152-10.24L581.632 768s212.992 61.44 229.376-104.448c18.432-167.936-2.048-274.432-2.048-274.432z" fill="#FFFFFF" p-id="1259"></path></svg>