<?xml version="1.0" standalone="no"?>
<!DOCTYPE
  svg
  PUBLIC "-//W3C//DTD SVG 1.1//EN" "http://www.w3.org/Graphics/SVG/1.1/DTD/svg11.dtd"
><svg
  t="1748979375425"
  class="icon"
  viewBox="0 0 1113 1024"
  version="1.1"
  xmlns="http://www.w3.org/2000/svg"
  p-id="3331"
  xmlns:xlink="http://www.w3.org/1999/xlink"
  width="217.3828125"
  height="200"
>
  <path
    d="M379.472842 114.795789l-42.990035 0.07186V54.900772c0-27.773754-17.515789-47.104-50.876632-47.104h-93.327719v993.800982h144.204351V188.272281l42.990035-0.07186V114.795789zM19.240421 825.397895A47.607018 47.607018 0 0 0 66.937263 873.094737h75.021474V69.164912h-122.700351v756.232983zM939.708632 7.814737H476.591158c-35.390877 0-55.601404 21.378246-55.601404 57.667368v226.878877H1022.688561c35.390877 0 55.601404-21.378246 55.601404-57.703298V7.796772h-138.581333zM909.204211 69.164912v51.756913H583.895579v-51.738948h325.344561z m-325.326597 161.82793v-48.684912h325.344561v48.684912h-325.344561z m387.14386 105.454035H445.44c-35.390877 0-55.601404 21.378246-55.601404 57.703298V573.44H1053.821754c35.390877 0 55.601404-21.378246 55.601404-57.703298v-179.289825h-138.383719z m-186.47579 61.368141v114.256842h-69.883509v-114.256842h69.883509z m-256.341333 0h69.883509v114.256842h-69.883509v-114.256842z m372.951579 114.256842v-114.256842h69.847579v114.256842h-69.865544z m208.392982 489.507929l-0.089824-74.051368c-60.793263 0.341333-139.695158-7.886596-217.411369-25.67186 106.262456-54.074386 182.20014-132.581053 196.482246-241.376561 3.233684-24.50414-7.23986-42.93614-37.115509-42.93614H448.008982c-29.893614 0-40.349193 18.432-37.151438 42.93614 14.30007 108.777544 90.237754 187.302175 196.50021 241.376561-77.716211 17.785263-156.618105 26.013193-217.411368 25.67186l-0.089825 74.051368c119.035509-0.089825 246.604351-13.832982 359.855158-45.523087 113.250807 31.67214 240.819649 45.451228 359.855158 45.523087z m-516.042105-316.541754h312.39186c-2.101895 75.380772-67.961263 131.592982-156.204913 170.810386-88.225684-39.217404-154.085053-95.429614-156.186947-170.810386z"
    fill="#FF421D"
    p-id="3332"
  ></path>
</svg>