<?xml version="1.0" standalone="no"?>
<!DOCTYPE
  svg
  PUBLIC "-//W3C//DTD SVG 1.1//EN" "http://www.w3.org/Graphics/SVG/1.1/DTD/svg11.dtd"
><svg
  t="1755047813813"
  class="icon"
  viewBox="0 0 1024 1024"
  version="1.1"
  xmlns="http://www.w3.org/2000/svg"
  p-id="2346"
  xmlns:xlink="http://www.w3.org/1999/xlink"
  width="200"
  height="200"
>
  <path
    d="M153.234286 0h717.531428Q1024 0 1024 153.234286v717.531428Q1024 1024 870.765714 1024H153.234286Q0 1024 0 870.765714V153.234286Q0 0 153.234286 0z"
    fill="#FFDA44"
    p-id="2347"
  ></path>
  <path
    d="M869.668571 464.457143h-103.862857v36.571428h103.862857z m52.662858-25.6v178.468571a26.331429 26.331429 0 0 1-26.331429 26.331429 27.794286 27.794286 0 0 1-7.68 0h-307.931429a26.331429 26.331429 0 0 1-26.331428-26.331429V438.857143a26.697143 26.697143 0 0 1 26.331428-26.697143h146.285715a27.428571 27.428571 0 0 1 14.628571-4.388571 29.622857 29.622857 0 0 1 14.628572 4.388571h140.068571a26.697143 26.697143 0 0 1 26.331429 26.697143z m-52.662858 150.674286v-36.571429h-103.862857v36.571429z m-156.891428-125.074286h-106.057143v36.571428h106.057143z m0 124.708571v-36.571428h-106.057143v36.571428z m155.794286-226.011428h-262.948572V365.714286a26.331429 26.331429 0 0 1-52.662857 0v-29.257143a26.331429 26.331429 0 0 1 26.331429-26.331429h315.611428a26.331429 26.331429 0 0 1 26.331429 26.331429v29.257143a26.331429 26.331429 0 0 1-52.662857 0zM444.708571 329.142857a26.697143 26.697143 0 0 1 26.331429 26.697143v331.702857a26.331429 26.331429 0 0 1-52.662857 0v-179.931428H313.417143v179.931428a26.697143 26.697143 0 0 1-26.697143 26.331429 26.331429 26.331429 0 0 1-26.331429-26.331429v-179.931428h-106.057142v179.931428a26.331429 26.331429 0 0 1-52.662858 0v-329.142857a26.331429 26.331429 0 1 1 52.662858 0v98.011429h106.057142v-8.777143a26.331429 26.331429 0 0 1 26.331429-26.331429 26.697143 26.697143 0 0 1 26.697143 26.331429v8.777143h104.96v-73.142858H277.942857a26.331429 26.331429 0 0 1-26.331428-26.331428A26.697143 26.697143 0 0 1 277.942857 329.142857z m-237.348571 241.371429a26.697143 26.697143 0 0 1 26.697143 26.331428v90.697143a26.697143 26.697143 0 0 1-26.697143 26.331429 26.331429 26.331429 0 0 1-24.502857-26.331429v-90.697143a26.331429 26.331429 0 0 1 26.331428-26.331428z m-4.388571-260.388572a26.697143 26.697143 0 0 1 26.697142 26.331429v29.257143a26.697143 26.697143 0 0 1-26.697142 26.331428 26.331429 26.331429 0 0 1-26.331429-26.331428v-29.257143a26.331429 26.331429 0 0 1 26.331429-26.331429z m376.32 350.72a26.697143 26.697143 0 0 1 26.331428 26.697143 26.331429 26.331429 0 1 1-52.662857 0 26.697143 26.697143 0 0 1 26.331429-26.697143z m107.154285 0a26.697143 26.697143 0 0 1 26.331429 26.697143 26.331429 26.331429 0 0 1-26.331429 26.331429 26.697143 26.697143 0 0 1-28.16-26.331429 26.697143 26.697143 0 0 1 26.697143-26.697143z m104.594286 0a26.697143 26.697143 0 0 1 26.697143 26.697143 26.697143 26.697143 0 0 1-26.697143 26.331429 26.331429 26.331429 0 0 1-26.331429-26.331429 26.697143 26.697143 0 0 1 26.331429-26.697143z m104.96 0a26.697143 26.697143 0 0 1 26.331429 26.697143 26.331429 26.331429 0 0 1-52.662858 0 26.697143 26.697143 0 0 1 26.331429-26.697143zM365.714286 570.514286a26.331429 26.331429 0 0 1 26.331428 26.331428v90.697143a26.331429 26.331429 0 0 1-26.331428 26.331429 26.697143 26.697143 0 0 1-26.697143-26.331429v-90.697143a26.697143 26.697143 0 0 1 26.697143-26.331428z"
    p-id="2348"
  ></path>
</svg>