<svg
  t="1755336694525"
  class="icon"
  viewBox="0 0 1024 1024"
  version="1.1"
  xmlns="http://www.w3.org/2000/svg"
  p-id="3726"
  width="200"
  height="200"
>
  <path
    d="M0 73.142857m48.761905 0l926.47619 0q48.761905 0 48.761905 48.761905l0 780.190476q0 48.761905-48.761905 48.761905l-926.47619 0q-48.761905 0-48.761905-48.761905l0-780.190476q0-48.761905 48.761905-48.761905Z"
    fill="#85BCFF"
    p-id="3727"
  ></path>
  <path
    d="M273.310476 276.967619m-68.022857 0a68.022857 68.022857 0 1 0 136.045714 0 68.022857 68.022857 0 1 0-136.045714 0Z"
    fill="#FFFFFF"
    p-id="3728"
  ></path>
  <path
    d="M463.238095 700.464762l-170.666666-133.12-195.047619 199.43619v66.56A46.811429 46.811429 0 0 0 146.285714 877.714286h731.428572a46.811429 46.811429 0 0 0 48.761904-44.373334V567.344762L755.809524 390.095238z"
    fill="#FFFFFF"
    p-id="3729"
  ></path>
</svg>